<svg xmlns="http://www.w3.org/2000/svg" width="32" height="32" viewBox="0 0 32 32" fill="none">
    <rect width="32" height="32" fill="url(#paint0_linear_890_225803)"/>
    <g filter="url(#filter0_i_890_225803)">
        <path transform="scale(0.91667),translate(5.5,5.5)"
              d="M11.5 2a1.5 1.5 0 0 0-.5 2.915V7H5.5a2 2 0 0 0-2 2v11a2 2 0 0 0 2 2h13a2 2 0 0 0 2-2V9a2 2 0 0 0-2-2H13V4.915A1.5 1.5 0 0 0 12.5 2h-1ZM7 14.5a1.5 1.5 0 1 1 3 0 1.5 1.5 0 0 1-3 0Zm8.5-1.5a1.5 1.5 0 1 1 0 3 1.5 1.5 0 0 1 0-3ZM2 13a1 1 0 1 0-2 0v3a1 1 0 1 0 2 0v-3Zm21-1a1 1 0 0 0-1 1v3a1 1 0 1 0 2 0v-3a1 1 0 0 0-1-1Z"
              fill="url(#paint1_linear_890_225803)"/>
    </g>
    <defs>
        <filter id="filter0_i_890_225803" x="4" y="4" width="24" height="24" filterUnits="userSpaceOnUse"
                color-interpolation-filters="sRGB">
            <feFlood flood-opacity="0" result="BackgroundImageFix"/>
            <feBlend mode="normal" in="SourceGraphic" in2="BackgroundImageFix" result="shape"/>
            <feColorMatrix in="SourceAlpha" type="matrix" values="0 0 0 0 0 0 0 0 0 0 0 0 0 0 0 0 0 0 127 0"
                           result="hardAlpha"/>
            <feOffset dy="-2"/>
            <feGaussianBlur stdDeviation="2"/>
            <feComposite in2="hardAlpha" operator="arithmetic" k2="-1" k3="1"/>
            <feColorMatrix type="matrix" values="0 0 0 0 1 0 0 0 0 1 0 0 0 0 1 0 0 0 0.2 0"/>
            <feBlend mode="normal" in2="shape" result="effect1_innerShadow_890_225803"/>
        </filter>
        <linearGradient id="paint0_linear_890_225803" x1="1.48929" y1="1.33043" x2="30.4506" y2="32.1453"
                        gradientUnits="userSpaceOnUse">
            <stop stop-color="transparent"/>
            <stop offset="1" stop-color="transparent"/>
        </linearGradient>
        <linearGradient id="paint1_linear_890_225803" x1="16" y1="6.83301" x2="16" y2="25.8432"
                        gradientUnits="userSpaceOnUse">
            <stop stop-color="white"/>
            <stop offset="0.401042" stop-color="white" stop-opacity="0.85"/>
            <stop offset="1" stop-color="white" stop-opacity="0.5"/>
        </linearGradient>
    </defs>
</svg>