<?xml version="1.0" standalone="no"?><!DOCTYPE svg PUBLIC "-//W3C//DTD SVG 1.1//EN"
        "http://www.w3.org/Graphics/SVG/1.1/DTD/svg11.dtd">
<svg t="1715053952025" class="icon" viewBox="0 0 1024 1024" version="1.1" xmlns="http://www.w3.org/2000/svg"
     p-id="19242" xmlns:xlink="http://www.w3.org/1999/xlink" width="200" height="200">
    <path d="M910.985 209.38L575.971 16.105c-34.903-20.142-92.025-20.142-126.932 0l-335 193.273c-34.907 20.137-63.464 69.566-63.464 109.849v386.547c0 40.278 28.557 89.707 63.464 109.848l335 193.273c34.907 20.137 92.03 20.137 126.932 0l335.004-193.273c34.912-20.151 63.467-69.576 63.467-109.859V319.228c0.002-40.283-28.555-89.712-63.457-109.849zM622.19 512.501c0 123.223-99.97 223.12-223.293 223.12-123.317 0-223.288-99.897-223.288-223.12V342.203c0-29.174 23.668-52.833 52.878-52.833 29.205 0 52.868 23.648 52.868 52.833v170.289c0 64.863 52.629 117.448 117.542 117.448 64.917 0 117.542-52.586 117.542-117.448V342.203c0-29.174 23.678-52.833 52.873-52.833 29.2 0 52.867 23.648 52.867 52.833v170.299h0.01z m227.219 170.283c0 29.18-23.663 52.838-52.868 52.838-29.205 0-52.877-23.658-52.877-52.838V342.203c0-29.174 23.672-52.833 52.877-52.833 29.205 0 52.868 23.648 52.868 52.833v340.582z m0 0"
          p-id="19243" fill="currentColor"></path>
</svg>