<?xml version="1.0" standalone="no"?><!DOCTYPE svg PUBLIC "-//W3C//DTD SVG 1.1//EN" "http://www.w3.org/Graphics/SVG/1.1/DTD/svg11.dtd"><svg t="1718872192180" class="icon" viewBox="0 0 1024 1024" version="1.1" xmlns="http://www.w3.org/2000/svg" p-id="4283" xmlns:xlink="http://www.w3.org/1999/xlink" width="200" height="200"><path d="M126.634667 134.4a42.666667 42.666667 0 0 0 2.730666 85.290667L326.314667 213.333333a42.666667 42.666667 0 0 1 31.530666 12.458667l109.738667 109.738667a85.333333 85.333333 0 0 1 0 120.661333l-60.330667 60.330667a85.333333 85.333333 0 0 1-120.704 0L220.032 450.133333a85.333333 85.333333 0 0 1-24.917333-63.061333l0.426666-13.098667a42.666667 42.666667 0 0 0-85.333333-2.730666l-0.426667 13.098666a170.666667 170.666667 0 0 0 49.92 126.122667l66.517334 66.517333a170.624 170.624 0 0 0 165.12 44.117334c0.853333 1.066667 1.792 2.090667 2.773333 3.072l110.336 110.336a42.666667 42.666667 0 0 0 60.330667-60.330667L467.626667 576.853333l60.330666-60.330666 97.194667 97.237333a42.666667 42.666667 0 0 0 60.330667-60.373333l-110.336-110.293334a43.861333 43.861333 0 0 0-3.072-2.816 170.624 170.624 0 0 0-44.117334-165.12L418.176 165.546667a128 128 0 0 0-94.592-37.418667l-196.949333 6.314667zM707.84 366.506667a42.666667 42.666667 0 0 0 6.698667 59.989333l85.290666 67.968v238.634667a42.666667 42.666667 0 1 0 85.333334 0V494.506667a85.333333 85.333333 0 0 0-32.128-66.688l-85.248-68.010667a42.666667 42.666667 0 0 0-59.989334 6.784zM377.472 752.213333a42.666667 42.666667 0 0 0-66.730667 53.162667l68.010667 85.248a85.333333 85.333333 0 0 0 66.730667 32.128h451.925333a42.666667 42.666667 0 1 0 0-85.333333H445.482667L377.472 752.213333z" p-id="4284"></path></svg>